<?xml version="1.0" encoding="utf-8"?>
<!-- Generator: Adobe Illustrator 23.0.0, SVG Export Plug-In . SVG Version: 6.00 Build 0)  -->
<svg version="1.1" id="Livello_1" xmlns="http://www.w3.org/2000/svg" xmlns:xlink="http://www.w3.org/1999/xlink" x="0px" y="0px"
	 width="121px" height="50px" viewBox="0 0 121 50" style="enable-background:new 0 0 121 50;" xml:space="preserve">
<style type="text/css">
	.st0{fill:#222222;}
	.st1{font-family:'Times-Bold';}
	.st2{font-size:40px;}
	.st3{fill-rule:evenodd;clip-rule:evenodd;fill:url(#Fill-1_1_);}
</style>
<g id="Page-1">
	<g id="Logo-Variants" transform="translate(-31.000000, -120.000000)">
		<g id="Logo-Shorthand" transform="translate(30.000000, 120.000000)">
			<text transform="matrix(1 0 0 1 0 39)" class="st0 st1 st2">dc</text>
			<text transform="matrix(1 0 0 1 82 39)" class="st0 st1 st2">iv.</text>
			
				<linearGradient id="Fill-1_1_" gradientUnits="userSpaceOnUse" x1="-392.7952" y1="692.03" x2="-391.7952" y2="692.03" gradientTransform="matrix(30.8222 0 0 -50 12151.8115 34626.5)">
				<stop  offset="0" style="stop-color:#FCA09A"/>
				<stop  offset="0.2367" style="stop-color:#FCCCD3"/>
				<stop  offset="0.4468" style="stop-color:#FFCC9D"/>
				<stop  offset="0.6515" style="stop-color:#98DDAD"/>
				<stop  offset="0.8182" style="stop-color:#81D7EC"/>
				<stop  offset="1" style="stop-color:#A0AAED"/>
			</linearGradient>
			<path id="Fill-1" class="st3" d="M45,28.5L60.4,50l15.4-21.5l-15.4,9.4L45,28.5z M59.4,45.2l-7.1-9.8l7,4.3h0V45.2z M61.4,39.6
				l7.1-4.3l-7.1,9.9V39.6z M75.8,26.5L60.4,0L45,26.5l15.4,9.4L75.8,26.5z M61.4,5.7l10.5,18.1l-10.5-4.5V5.7z M61.4,21.4l11.1,4.8
				l-11.1,6.8V21.4z M59.4,32.9l-11.1-6.7l11.1-4.8V32.9z M59.4,19.2l-10.5,4.5L59.4,5.7V19.2z"/>
		</g>
	</g>
</g>
</svg>
